<svg width="14" height="14" viewBox="0 0 14 14" fill="none" xmlns="http://www.w3.org/2000/svg">
<path d="M7 12.3333H13M1.00002 12.3333H2.11638C2.4425 12.3333 2.60556 12.3333 2.75901 12.2965C2.89506 12.2638 3.02512 12.21 3.14441 12.1368C3.27897 12.0544 3.39427 11.9391 3.62487 11.7085L12 3.33333C12.5523 2.78104 12.5523 1.88561 12 1.33333C11.4477 0.781042 10.5523 0.781042 10 1.33333L1.62486 9.70849C1.39425 9.93909 1.27895 10.0544 1.1965 10.1889C1.12339 10.3082 1.06952 10.4383 1.03686 10.5744C1.00002 10.7278 1.00002 10.8909 1.00002 11.217V12.3333Z" stroke="#4B5563" stroke-width="1.5" stroke-linecap="round" stroke-linejoin="round"/>
</svg>
