<svg width="21" height="20" viewBox="0 0 21 20" fill="none" xmlns="http://www.w3.org/2000/svg">
<path d="M4.03695 7.91589H3.62028C2.8346 7.91589 2.44177 7.91589 2.19769 8.15997C1.95361 8.40406 1.95361 8.79689 1.95361 9.58256V16.6659C1.95361 17.4516 1.95361 17.8444 2.19769 18.0885C2.44177 18.3326 2.8346 18.3326 3.62028 18.3326H4.03695C4.82262 18.3326 5.21545 18.3326 5.45954 18.0885C5.70361 17.8444 5.70361 17.4516 5.70361 16.6659V9.58256C5.70361 8.79689 5.70361 8.40406 5.45954 8.15997C5.21545 7.91589 4.82262 7.91589 4.03695 7.91589Z" stroke="#DFDFDF" stroke-width="1.42857"/>
<path d="M5.70361 3.54089C5.70361 4.57643 4.86415 5.41589 3.82861 5.41589C2.79308 5.41589 1.95361 4.57643 1.95361 3.54089C1.95361 2.50536 2.79308 1.66589 3.82861 1.66589C4.86415 1.66589 5.70361 2.50536 5.70361 3.54089Z" stroke="#DFDFDF" stroke-width="1.42857"/>
<path d="M10.5586 7.91589H9.87028C9.08461 7.91589 8.69178 7.91589 8.44769 8.15997C8.20361 8.40406 8.20361 8.79689 8.20361 9.58256V16.6659C8.20361 17.4516 8.20361 17.8444 8.44769 18.0885C8.69178 18.3326 9.08461 18.3326 9.87028 18.3326H10.2869C11.0726 18.3326 11.4654 18.3326 11.7095 18.0885C11.9536 17.8444 11.9536 17.4516 11.9536 16.6659L11.9537 13.7493C11.9537 12.3686 12.3937 11.2493 13.6935 11.2493C14.3434 11.2493 14.8703 11.809 14.8703 12.4993V16.2493C14.8703 17.035 14.8703 17.4278 15.1144 17.6719C15.3584 17.916 15.7513 17.916 16.5369 17.916H16.9525C17.738 17.916 18.1308 17.916 18.3749 17.672C18.6189 17.428 18.619 17.0352 18.6192 16.2497L18.6204 11.6661C18.6204 9.59506 16.6506 7.91609 14.7009 7.91609C13.591 7.91609 12.6009 8.46014 11.9537 9.31089C11.9536 8.78581 11.9536 8.52331 11.8396 8.32839C11.7674 8.20494 11.6645 8.10217 11.5411 8.02995C11.3462 7.91589 11.0837 7.91589 10.5586 7.91589Z" stroke="#DFDFDF" stroke-width="1.42857" stroke-linejoin="round"/>
</svg>
